<?xml version="1.0" encoding="UTF-8"?>
<svg id="uuid-53ae4ff1-8570-4d5d-b46d-cdc0920455d8" data-name="Layer 1" xmlns="http://www.w3.org/2000/svg" viewBox="0 0 393.85 382.39">
  <path d="m195.14,382.24c-31.25,0-62.51.39-93.76-.1-35.66-.56-64.1-15.66-84.16-45.24C5.85,320.16.46,301.15.33,280.88c-.18-29.05,0-58.11-.06-87.17C.22,165.03-.06,136.35.01,107.67c.06-24.49,6.35-47.22,21.67-66.65C42.46,14.65,69.85.45,103.57.18c40.16-.33,80.32.24,120.48.29,21.12.02,42.24-.05,63.35-.44,21.87-.41,41.62,6.08,59.85,17.63,18.16,11.5,30.27,27.97,38.47,47.65,5.44,13.07,7.85,26.63,7.87,40.68.1,57.99.42,115.98.14,173.97-.16,34.28-13.83,62.49-41.87,82.56-17.62,12.61-37.83,19.32-59.7,19.49-32.34.26-64.68.07-97.02.07,0,.06,0,.12,0,.18Zm.66-363.68v.14c-27.96,0-55.92.07-83.89-.02-20.21-.07-38.9,4.7-55.41,16.77-24.01,17.54-36.47,41.05-36.6,70.9-.23,55.43-.4,110.86-.63,166.29-.06,13.65,2.97,26.58,8.44,39.06,7.41,16.9,19.05,29.87,35.01,39.14,15.17,8.81,31.58,13.03,48.95,13.06,35.89.06,71.78-.33,107.67-.49,23.44-.1,46.89-.08,70.33-.19,3.29-.02,6.61-.2,9.85-.74,41.41-6.83,71.99-36.95,74.72-80.74.77-12.4.15-24.88.17-37.33.09-43.1.21-86.2.24-129.3,0-6.34.09-12.74-.69-19.01-4.45-35.96-31.97-66.76-67.41-74.52-10.38-2.27-21.3-2.72-31.98-2.88-26.25-.39-52.5-.13-78.76-.13Z" stroke-width="0"/>
  <path d="m195.8,18.56c26.25,0,52.51-.26,78.76.13,10.69.16,21.6.61,31.98,2.88,35.44,7.76,62.96,38.56,67.41,74.52.78,6.27.69,12.67.69,19.01-.03,43.1-.15,86.2-.24,129.3-.03,12.45.6,24.93-.17,37.33-2.73,43.79-33.3,73.91-74.72,80.74-3.24.53-6.56.72-9.85.74-23.44.11-46.89.09-70.33.19-35.89.15-71.78.55-107.67.49-17.36-.03-33.77-4.24-48.95-13.06-15.96-9.27-27.6-22.24-35.01-39.14-5.47-12.47-8.49-25.4-8.44-39.06.23-55.43.4-110.86.63-166.29.13-29.84,12.59-53.36,36.6-70.9,16.51-12.06,35.2-16.83,55.41-16.77,27.96.09,55.92.02,83.89.02v-.14Zm-.37,330.75s0,.03,0,.04c1.71,0,3.42,0,5.12,0,28.45.11,56.89.37,85.34.23,6.77-.03,13.71-.7,20.27-2.31,12.46-3.04,24.18-8.12,32.98-17.89,14.95-16.6,21.9-36.12,21.52-58.6-.62-36.6-.73-73.22-.8-109.83-.04-19.29.56-38.57.67-57.86.08-13.99-4.19-26.82-12.32-38.05-15.94-22.01-37.53-33.5-64.97-33.46-21.48.03-42.96-.05-64.44,0-13.06.03-26.12.28-39.18.35-24.79.12-49.57.12-74.36.3-10.79.08-21.17,2.77-30.71,7.49-21.21,10.5-34.17,27.77-39.5,50.78-.69,2.96-1.42,6.02-1.37,9.02.36,25.14.84,50.27,1.43,75.4.18,7.67,1.4,15.36,1.11,23-.86,23.29-2.18,46.55-3.39,69.83-.93,17.82,3.87,34.08,13.46,48.96,12.72,19.74,31.22,30.77,54.31,32.08,23,1.3,46.12.47,69.19.55,8.54.03,17.09,0,25.63,0Z" fill="#fff" stroke-width="0"/>
  <path d="m195.43,349.31c-8.54,0-17.09.03-25.63,0-23.07-.08-46.19.75-69.19-.55-23.1-1.31-41.59-12.34-54.31-32.08-9.59-14.88-14.39-31.13-13.46-48.96,1.21-23.27,2.53-46.54,3.39-69.83.28-7.64-.94-15.32-1.11-23-.59-25.13-1.06-50.27-1.43-75.4-.04-3,.69-6.06,1.37-9.02,5.33-23,18.29-40.28,39.5-50.78,9.55-4.73,19.92-7.42,30.71-7.49,24.78-.17,49.57-.17,74.36-.3,13.06-.06,26.12-.31,39.18-.35,21.48-.05,42.96.03,64.44,0,27.43-.04,49.03,11.46,64.97,33.46,8.13,11.23,12.4,24.07,12.32,38.05-.11,19.29-.71,38.58-.67,57.86.07,36.61.19,73.23.8,109.83.38,22.48-6.57,42-21.52,58.6-8.8,9.77-20.53,14.85-32.98,17.89-6.56,1.6-13.5,2.27-20.27,2.31-28.45.14-56.89-.12-85.34-.23-1.71,0-3.42,0-5.12,0,0-.01,0-.03,0-.04Zm-79.77-162.14c.11,0,.21,0,.32,0,0-35.15.02-70.29-.02-105.44,0-4.64-.29-9.27-.41-13.91-.06-2.15-.75-3.75-3.07-4.37-5.65-1.51-9.8,1.33-10.2,7.08-.08,1.1-.13,2.19-.13,3.29-.02,17.21-.09,34.42-.02,51.63.1,27.09.44,54.18.42,81.27-.02,32.34-.35,64.69-.47,97.03-.02,5.9,2.66,7.78,8.69,7.17,3.38-.34,4.73-1.87,4.71-5.12-.02-3.54.17-7.08.18-10.62.01-36.01,0-72.02,0-108.03Zm63.25-.24h.26c0,35.78,0,71.55,0,107.33,0,10.82-.2,8.72,9.04,9.01,3.84.12,4.96-1.66,4.86-5-.15-5-.45-10-.46-15-.01-67.76.02-135.52.03-203.28q0-7.64-7.8-8.12-5.93-.37-5.93,5.54c0,36.51,0,73.02,0,109.52Zm38.53.05s.03,0,.04,0c0-35.88.04-71.76-.02-107.64-.02-9.8,1.81-8.59-9.02-8.88-3.45-.09-4.68.96-4.6,4.57.35,17.08.56,34.16.62,51.24.1,27.46.12,54.91.04,82.37-.08,28.56-.32,57.12-.47,85.68-.05,8.69.1,8.66,8.86,8.98,3.62.13,4.6-1.22,4.59-4.64-.08-37.22-.05-74.45-.05-111.67Zm63.42-10.02s-.1,0-.15,0c0,34.9,0,69.8,0,104.7,0,1.46-.19,3.01.23,4.36.29.91,1.42,2.07,2.3,2.19,9.38,1.34,11.04-.12,11.1-9.4,0-.37,0-.73,0-1.1-.16-69.18-.33-138.37-.49-207.55-.01-4.79-1.9-6.78-6.52-6.85-4.68-.07-6.12,1.36-6.42,6.38-.05.85-.06,1.71-.06,2.56,0,34.9,0,69.8,0,104.7Zm-190.17,9.95c-.13,0-.25,0-.38,0,0-23.92-.01-47.85.02-71.77,0-2.32-.13-4.38-2.64-5.47-5.52-2.4-10.51.68-10.59,6.6-.21,15.74-.47,31.49-.59,47.23-.27,33.8-.48,67.59-.7,101.39-.03,4.52,3.48,8.35,7.54,8.28,4.49-.07,8.2-4.03,8-8.66-.11-2.56-.62-5.1-.62-7.66-.05-23.31-.03-46.62-.03-69.93Zm215.66,1.83c-.14,0-.29,0-.43,0,0,22.82-.01,45.63.02,68.45,0,3.53-.07,7.11.39,10.59.6,4.51,4.79,6.7,9.04,5.11,3.76-1.41,5.63-5.27,5.14-9.87-.56-5.2-1.14-10.43-1.16-15.65-.05-10.61.43-21.23.41-31.84-.06-29.65-.26-59.3-.4-88.95-.02-4.52.08-9.03-.05-13.55-.04-1.25-.34-3-1.18-3.63-3.19-2.38-6.8-1.39-10.16-.29-2.89.95-1.82,3.59-1.82,5.67,0,2.81.18,5.61.18,8.42.02,21.85,0,43.69,0,65.54Zm-76.8-2.69s-.07,0-.11,0c0,19.76-.04,39.53.07,59.29,0,1.7.86,4.75,1.63,4.85,3.55.48,7.21.19,10.82-.01.25-.01.55-1.52.6-2.35.21-4.02.48-8.04.48-12.06.06-35.99.07-71.98.09-107.97q0-5.64-5.85-5.66c-1.22,0-2.46.06-3.65-.15-3.34-.57-4.15.92-4.13,4.06.11,20,.06,40,.06,60.01Zm-63.02.5c-.11,0-.22,0-.34,0,0-19.28,0-38.56,0-57.84,0-8.27-.14-6.83-6.94-6.86-5.58-.03-5.7.02-5.71,5.63-.07,39.17-.11,78.34-.08,117.51,0,7.06.2,7.1,7.18,6.91,5.67-.15,5.91-.47,5.9-6.04-.03-19.77-.01-39.53-.01-59.3Zm-115.59-3.97c-.07,0-.14,0-.21,0,0,9.64-.06,19.27.02,28.91.07,8.35.14,8.35,8.42,8.06q5.16-.18,5.17-5.53c.02-19.16-.05-38.32.16-57.48.04-3.29.98-6.68,2.11-9.81,1.15-3.18.83-5.65-1.56-7.98-3.15-3.08-6.47-3.91-9.56-2.3-3.77,1.97-5.79,6.28-5.18,10.3.44,2.88.56,5.82.59,8.74.07,9.03.03,18.06.03,27.09Zm288.33,35.76q7.1.13,7.11-6.54c.04-22.31.07-44.62.1-66.93,0-4.27-4.54-8.61-8.58-8.23-4.45.41-7.74,4.86-7.03,9.46.47,3,1.23,6.01,1.27,9.03.29,18.79.46,37.58.56,56.38.04,7.77-.36,6.67,6.57,6.84Zm-83.49-33.18h-.21c0,10.85-.03,21.69.01,32.54.03,5.79.09,5.79,5.75,5.69,7.97-.14,7.93-.14,7.88-7.96-.15-20.97-.27-41.93-.38-62.9-.03-5.08,0-5.06-5.2-5.1-1.34,0-2.7.01-4.01-.2-2.9-.47-3.91.67-3.88,3.57.1,11.45.04,22.91.04,34.36Zm-115.19-.67c0-10.35,0-20.71,0-31.06q0-6.65-6.79-6.39c-.85.03-1.71.08-2.56.04-2.55-.12-3.65.85-3.66,3.62-.05,21.81-.27,43.62-.34,65.43-.02,7.45.12,7.45,7.31,7.33.49,0,.98-.06,1.46,0,3.49.4,4.68-1.13,4.63-4.61-.16-11.45-.06-22.91-.07-34.36Zm55.85,149.04c4.98-.07,9.07-4.17,9.06-9.11,0-4.76-5.03-9.94-9.55-9.85-5.13.1-10.45,5.01-10.33,9.54.12,4.86,5.44,9.49,10.82,9.42Zm142.48-84.43c4.9-.06,9.18-4.05,9.16-8.54-.01-4.66-4.76-9.41-9.41-9.43-5.1-.02-9.44,4.46-9.38,9.68.05,4.79,4.2,8.37,9.63,8.3Zm-101.1-137.73c5.18.05,9.06-3.79,9.04-8.94-.02-5.14-3.68-8.97-8.61-9.02-5.23-.05-9.82,3.99-9.98,8.79-.15,4.67,4.49,9.12,9.55,9.17Zm-69.3,160.24c0-4.39-4.91-9.17-9.33-9.08-4.98.1-9.57,4.28-9.61,8.75-.05,4.76,4.55,9.1,9.62,9.08,5.26-.02,9.33-3.84,9.33-8.75Zm-34.04-18.11c5.43.03,9.55-3.83,9.54-8.94-.01-4.31-4.93-8.99-9.48-9.02-4.42-.03-9.55,4.85-9.5,9.03.06,4.37,4.85,8.9,9.44,8.93Zm33.94-151.14c.08-4.72-3.95-8.78-8.85-8.93-4.96-.15-9.85,4.32-9.81,8.95.04,4.52,4.35,8.78,9.03,8.94,5.13.18,9.55-3.93,9.63-8.96Zm78.55,169.08c.05-3.99-4.9-8.73-9.16-8.78-4.37-.06-9.08,4.46-9.12,8.74-.04,4.75,4.2,9.46,8.69,9.64,4.69.19,9.54-4.66,9.6-9.6Zm-188.49-23.04c5.17.05,9.94-4.16,9.93-8.74-.01-3.92-5.03-8.08-9.81-8.14-4.87-.06-9.57,3.69-9.65,7.68-.09,4.63,4.6,9.15,9.53,9.2Zm220.48,58.18c1.41,2.22,2.31,5.31,4.21,6.16,2.01.9,5.27.28,7.46-.77,3.64-1.76,4.51-5.41,3.24-9.85-.64-2.22-1.09-4.52-2.01-6.62-.66-1.51-1.83-3.73-2.99-3.88-1.59-.2-4.26.82-4.93,2.11-1.97,3.83-3.19,8.05-4.97,12.85Zm-17.06-70.61c-4.91-.03-8.76,3.56-8.87,8.27-.11,4.89,4.07,9.18,8.94,9.18,4.57,0,9.21-4.26,9.36-8.59.15-4.31-4.66-8.83-9.43-8.86Zm-126.44-117.04c-5.07-.05-10,4.04-9.98,8.27.02,4.06,4.91,8.89,9.11,9.02,4.77.14,9.32-4.16,9.37-8.87.05-4.18-4.2-8.38-8.5-8.42Zm60.55-58.78c4.36-.08,8.35-4.22,8.25-8.57-.1-4.55-4.27-8.84-8.57-8.82-4.65.02-8.87,4.26-8.87,8.9,0,4.52,4.39,8.58,9.19,8.49Zm75.41,67.43c.02-3.99-5.06-8.64-9.39-8.59-4.38.05-8.36,4.09-8.35,8.47,0,4.55,4.13,8.8,8.51,8.77,4.61-.03,9.21-4.35,9.24-8.65Z" stroke-width="0"/>
  <path d="m115.66,187.17c0,36.01,0,72.02,0,108.03,0,3.54-.2,7.08-.18,10.62.02,3.25-1.33,4.78-4.71,5.12-6.03.61-8.71-1.27-8.69-7.17.12-32.34.44-64.69.47-97.03.02-27.09-.31-54.18-.42-81.27-.07-17.21,0-34.42.02-51.63,0-1.1.05-2.2.13-3.29.4-5.75,4.55-8.59,10.2-7.08,2.32.62,3.01,2.21,3.07,4.37.13,4.64.41,9.27.41,13.91.04,35.15.02,70.29.02,105.44-.11,0-.21,0-.32,0Z" fill="#fff" stroke-width="0"/>
  <path d="m178.91,186.93c0-36.51,0-73.02,0-109.52q0-5.91,5.93-5.54,7.8.49,7.8,8.12c-.02,67.76-.05,135.52-.03,203.28,0,5,.3,10,.46,15,.1,3.34-1.02,5.12-4.86,5-9.24-.29-9.04,1.81-9.04-9.01,0-35.78,0-71.55,0-107.33h-.26Z" fill="#fff" stroke-width="0"/>
  <path d="m217.45,186.98c0,37.22-.03,74.45.05,111.67,0,3.42-.97,4.77-4.59,4.64-8.76-.32-8.91-.28-8.86-8.98.15-28.56.39-57.12.47-85.68.08-27.46.06-54.91-.04-82.37-.06-17.08-.27-34.16-.62-51.24-.07-3.6,1.16-4.66,4.6-4.57,10.82.29,9-.93,9.02,8.88.06,35.88.02,71.76.02,107.64-.01,0-.03,0-.04,0Z" fill="#fff" stroke-width="0"/>
  <path d="m280.87,176.96c0-34.9,0-69.8,0-104.7,0-.85,0-1.71.06-2.56.3-5.03,1.74-6.45,6.42-6.38,4.62.07,6.51,2.06,6.52,6.85.16,69.18.32,138.37.49,207.55,0,.37,0,.73,0,1.1-.05,9.28-1.72,10.74-11.1,9.4-.88-.13-2.01-1.28-2.3-2.19-.42-1.34-.23-2.89-.23-4.36,0-34.9,0-69.8,0-104.7.05,0,.1,0,.15,0Z" fill="#fff" stroke-width="0"/>
  <path d="m90.7,186.91c0,23.31-.02,46.62.03,69.93,0,2.55.51,5.1.62,7.66.2,4.63-3.51,8.59-8,8.66-4.06.07-7.57-3.76-7.54-8.28.22-33.8.43-67.59.7-101.39.13-15.74.38-31.49.59-47.23.08-5.92,5.08-8.99,10.59-6.6,2.51,1.09,2.64,3.15,2.64,5.47-.04,23.92-.02,47.85-.02,71.77.13,0,.25,0,.38,0Z" fill="#fff" stroke-width="0"/>
  <path d="m306.36,188.74c0-21.85,0-43.69,0-65.54,0-2.81-.17-5.61-.18-8.42,0-2.08-1.07-4.72,1.82-5.67,3.36-1.1,6.96-2.09,10.16.29.84.63,1.14,2.38,1.18,3.63.13,4.51.03,9.03.05,13.55.14,29.65.34,59.3.4,88.95.02,10.61-.46,21.23-.41,31.84.02,5.22.6,10.45,1.16,15.65.49,4.59-1.38,8.46-5.14,9.87-4.25,1.59-8.44-.6-9.04-5.11-.46-3.49-.39-7.06-.39-10.59-.03-22.82-.02-45.63-.02-68.45.14,0,.29,0,.43,0Z" fill="#fff" stroke-width="0"/>
  <path d="m229.56,186.05c0-20,.05-40-.06-60.01-.02-3.14.79-4.63,4.13-4.06,1.19.2,2.43.14,3.65.15q5.84.03,5.85,5.66c-.02,35.99-.03,71.98-.09,107.97,0,4.02-.27,8.04-.48,12.06-.04.83-.35,2.34-.6,2.35-3.61.2-7.27.49-10.82.01-.77-.11-1.62-3.15-1.63-4.85-.11-19.76-.07-39.53-.07-59.29.04,0,.07,0,.11,0Z" fill="#fff" stroke-width="0"/>
  <path d="m166.54,186.55c0,19.77-.02,39.53.01,59.3,0,5.57-.24,5.89-5.9,6.04-6.98.19-7.17.15-7.18-6.91-.02-39.17.02-78.34.08-117.51,0-5.61.13-5.65,5.71-5.63,6.8.03,6.94-1.4,6.94,6.86,0,19.28,0,38.56,0,57.84.11,0,.22,0,.34,0Z" fill="#fff" stroke-width="0"/>
  <path d="m50.95,182.58c0-9.03.05-18.06-.03-27.09-.02-2.92-.15-5.86-.59-8.74-.61-4.01,1.41-8.33,5.18-10.3,3.09-1.61,6.41-.78,9.56,2.3,2.38,2.33,2.71,4.8,1.56,7.98-1.13,3.13-2.08,6.52-2.11,9.81-.21,19.16-.14,38.32-.16,57.48q0,5.35-5.17,5.53c-8.28.29-8.35.29-8.42-8.06-.08-9.64-.02-19.27-.02-28.91.07,0,.14,0,.21,0Z" fill="#fff" stroke-width="0"/>
  <path d="m339.28,218.34c-6.93-.18-6.53.92-6.57-6.84-.1-18.79-.27-37.58-.56-56.38-.05-3.01-.81-6.02-1.27-9.03-.71-4.59,2.58-9.04,7.03-9.46,4.04-.38,8.59,3.96,8.58,8.23-.03,22.31-.06,44.62-.1,66.93q-.01,6.67-7.11,6.54Z" fill="#fff" stroke-width="0"/>
  <path d="m255.79,185.16c0-11.45.06-22.91-.04-34.36-.03-2.91.99-4.04,3.88-3.57,1.31.21,2.67.19,4.01.2,5.2.04,5.17.03,5.2,5.1.11,20.97.23,41.93.38,62.9.06,7.83.1,7.83-7.88,7.96-5.66.1-5.72.1-5.75-5.69-.05-10.85-.01-21.69-.01-32.54h.21Z" fill="#fff" stroke-width="0"/>
  <path d="m140.61,184.49c0,11.46-.09,22.91.06,34.36.05,3.48-1.14,5.02-4.63,4.61-.48-.06-.97,0-1.46,0-7.2.11-7.34.11-7.31-7.33.06-21.81.29-43.62.34-65.43,0-2.77,1.11-3.74,3.66-3.62.85.04,1.71-.01,2.56-.04q6.79-.26,6.79,6.39c0,10.35,0,20.71,0,31.06Z" fill="#fff" stroke-width="0"/>
  <path d="m196.46,333.54c-5.38.07-10.7-4.56-10.82-9.42-.11-4.53,5.2-9.44,10.33-9.54,4.52-.09,9.54,5.09,9.55,9.85,0,4.94-4.08,9.04-9.06,9.11Z" fill="#fff" stroke-width="0"/>
  <path d="m338.93,249.11c-5.43.07-9.58-3.51-9.63-8.3-.06-5.22,4.28-9.69,9.38-9.68,4.65.02,9.4,4.77,9.41,9.43.01,4.49-4.27,8.48-9.16,8.54Z" fill="#fff" stroke-width="0"/>
  <path d="m237.83,111.38c-5.07-.05-9.7-4.5-9.55-9.17.15-4.79,4.75-8.84,9.98-8.79,4.94.05,8.59,3.88,8.61,9.02.02,5.15-3.86,8.99-9.04,8.94Z" fill="#fff" stroke-width="0"/>
  <path d="m168.53,271.62c0,4.92-4.06,8.73-9.33,8.75-5.07.02-9.67-4.32-9.62-9.08.04-4.47,4.63-8.64,9.61-8.75,4.42-.09,9.33,4.68,9.33,9.08Z" fill="#fff" stroke-width="0"/>
  <path d="m134.49,253.51c-4.59-.03-9.38-4.56-9.44-8.93-.06-4.18,5.07-9.06,9.5-9.03,4.55.03,9.47,4.71,9.48,9.02.01,5.11-4.11,8.97-9.54,8.94Z" fill="#fff" stroke-width="0"/>
  <path d="m168.43,102.37c-.09,5.04-4.5,9.14-9.63,8.96-4.68-.16-8.99-4.42-9.03-8.94-.04-4.64,4.85-9.11,9.81-8.95,4.9.15,8.93,4.22,8.85,8.93Z" fill="#fff" stroke-width="0"/>
  <path d="m246.98,271.44c-.06,4.94-4.91,9.79-9.6,9.6-4.48-.18-8.73-4.89-8.69-9.64.04-4.29,4.74-8.8,9.12-8.74,4.27.05,9.21,4.79,9.16,8.78Z" fill="#fff" stroke-width="0"/>
  <path d="m58.49,248.41c-4.93-.04-9.62-4.56-9.53-9.2.07-4,4.78-7.75,9.65-7.68,4.79.06,9.8,4.22,9.81,8.14.01,4.59-4.76,8.79-9.93,8.74Z" fill="#fff" stroke-width="0"/>
  <path d="m278.98,306.59c1.78-4.8,3-9.02,4.97-12.85.67-1.29,3.34-2.31,4.93-2.11,1.16.15,2.33,2.36,2.99,3.88.92,2.1,1.37,4.4,2.01,6.62,1.27,4.44.4,8.09-3.24,9.85-2.18,1.05-5.45,1.67-7.46.77-1.9-.85-2.79-3.94-4.21-6.16Z" fill="#fff" stroke-width="0"/>
  <path d="m261.91,235.98c4.77.03,9.57,4.54,9.43,8.86-.15,4.33-4.79,8.59-9.36,8.59-4.87,0-9.05-4.29-8.94-9.18.11-4.71,3.96-8.3,8.87-8.27Z" fill="#fff" stroke-width="0"/>
  <path d="m135.47,118.94c4.31.04,8.55,4.25,8.5,8.42-.05,4.71-4.59,9.01-9.37,8.87-4.2-.12-9.08-4.96-9.11-9.02-.02-4.23,4.91-8.32,9.98-8.27Z" fill="#fff" stroke-width="0"/>
  <path d="m196.02,60.15c-4.8.09-9.19-3.97-9.19-8.49,0-4.64,4.23-8.88,8.87-8.9,4.3-.02,8.47,4.27,8.57,8.82.09,4.35-3.9,8.49-8.25,8.57Z" fill="#fff" stroke-width="0"/>
  <path d="m271.43,127.58c-.02,4.3-4.63,8.62-9.24,8.65-4.38.03-8.5-4.22-8.51-8.77,0-4.38,3.98-8.42,8.35-8.47,4.33-.05,9.42,4.6,9.39,8.59Z" fill="#fff" stroke-width="0"/>
</svg>