<?xml version="1.0" encoding="UTF-8"?><svg id="a" xmlns="http://www.w3.org/2000/svg" viewBox="0 0 418.06 419.07"><path d="m132.2,82.3c-7.52,0-14.72-.1-21.92.02-24.43.39-42.32,11.24-53.02,33.42-3.56,7.39-5.01,15.25-5.01,23.43,0,37.43-.03,74.87-.05,112.3,0,15.91-.07,31.81.03,47.72.12,19.35,13.96,34.61,33.21,36.73,3.15.35,6.34.52,9.51.53,20.89.04,41.78.02,62.67.01,1.35,0,2.7,0,4.31,0v-106.59h-3.75c-23.01,0-46.02-.06-69.04.07-3.11.02-3.9-.91-3.84-3.93.21-10.6.13-21.21.16-31.81.01-4.18.01-4.2,4.13-4.2,55.04,0,110.07.03,165.11-.02,23.43-.02,46.87-.21,70.3-.29,2.62,0,5.25.24,8.15.39.34,12.07-3.42,22.18-11.92,30.33-6.65,6.38-14.82,9.32-23.99,9.38-12.72.08-25.45.03-38.18.04-1.14,0-2.28,0-3.84,0,0,1.8,0,3.25,0,4.69-.02,59.49-.03,118.98-.05,178.47,0,1.06-.09,2.13,0,3.18.2,2.27-.87,2.87-3,2.86-9.97-.09-19.94-.15-29.9.02-3,.05-3.99-.75-3.97-3.87.11-27.46.08-54.93.07-82.4,0-33.3-.03-66.6-.06-99.89,0-.84-.09-1.68-.15-2.78h-19.39c-.07,1.23-.22,2.56-.22,3.88-.02,46.66-.03,93.32-.03,139.98,0,4.57.02,4.56-4.41,4.56-41.99,0-83.98-.01-125.97.03-14.07.02-27.23-3.28-38.61-11.64C9.82,352.45.16,332.64.13,308.2c-.07-52.49-.07-104.98-.09-157.48,0-12.3.09-24.6-.03-36.9C-.37,76.4,28.35,47.93,59.29,41.61c3.51-.72,7.15-1.03,10.73-1.04,19.72-.1,39.45-.04,59.17-.08,1.9,0,3.22.1,3.21,2.63-.07,12.41,0,24.81.02,37.22,0,.51-.12,1.02-.23,1.96Z" fill="#f2f2f2"/><path d="m255.37,82.41v34.28c1.37.08,2.61.21,3.85.21,13.26.02,26.51.02,39.77.04,19.81.03,33.73,13.79,34.11,33.7.03,1.67,0,3.34,0,5.23-1.43.08-2.56.19-3.69.19-34.89-.01-69.78,0-104.67-.09-7.41-.02-6.3.61-6.32-6.28-.08-35.21-.05-70.41-.17-105.62,0-2.77.71-3.61,3.54-3.6,41.68.09,83.35-.05,125.03.11,37.97.15,70.92,32.92,71.16,70.95.24,38.28-.16,76.57.08,114.85.16,25.56-9.92,46.13-29.42,62.05-12.49,10.2-27.12,15.57-43.38,15.91-6.25.13-12.5.02-19.32.02,0,1.39,0,2.6,0,3.82,0,22.27-.05,44.54.06,66.81.02,2.85-.84,3.59-3.6,3.55-11.24-.13-22.48-.03-33.72-.02-1.15,0-2.3-.1-3.72-.17-.06-1.25-.14-2.28-.14-3.31,0-36.05.03-72.11-.02-108.16,0-2.36.69-3.12,3.06-3.08,6.68.1,13.36-.18,20.04-.05,30.84.61,52.18-23.55,56.63-48.02.81-4.46,1.17-9.05,1.19-13.59.1-21,.08-41.99-.03-62.99-.15-26.76-18.13-49.35-44-55.26-3.7-.85-7.54-1.46-11.32-1.5-17.6-.17-35.21-.11-52.81-.12-.62,0-1.24.09-2.2.16Z" fill="#f2f2f2"/><path d="m162.09,0h36.2v155.82c-1.17.07-2.29.19-3.4.19-35.3,0-70.6-.05-105.89.04-2.97,0-3.71-.88-3.72-3.75-.03-18.34,10.22-31.55,27.44-34.92,2.37-.46,4.85-.46,7.28-.47,12.72-.04,25.44,0,38.16-.02,1.24,0,2.47-.11,3.94-.18V0Z" fill="#f2f2f2"/><path d="m85.87,264.02h46.12c.13.88.33,1.6.33,2.31.02,11.02-.02,22.05.05,33.07.01,2.03-.63,2.83-2.73,2.82-13.67-.1-27.35-.1-41.02-.15-1.74,0-3.33.04-3.29-2.6.18-11.23.2-22.47.29-33.7,0-.52.14-1.03.25-1.75Z" fill="#f2f2f2"/></svg>